<svg xmlns="http://www.w3.org/2000/svg" width="24" height="24" fill="currentColor" viewBox="0 0 24 24">
  <path
    fillRule="evenodd"
    clipRule="evenodd"
    d="M2.81523 3.21397L1.40112 4.62808L6.44763 9.67459L2.99942 13.1228V15.9478L7.86013 11.0871L10.9994 14.2264V21.1228H12.9994V16.2264L14.9994 18.2264V21.1228H16.9994V20.2264L19.7859 23.0129L21.2001 21.5986L21.1892 21.5877L21.1891 21.5878L2.81523 3.21397ZM20.9994 18.5697V9.1228L18.9994 11.1228V16.5697L20.9994 18.5697ZM16.9994 14.5697V13.1478L16.2885 13.8588L16.9994 14.5697ZM14.6885 12.2588L20.9994 5.9478V3.1228L13.9994 10.1228L9.99942 6.1228L9.27595 6.84627L14.6885 12.2588ZM2.99942 19.1228V21.1228H4.99942V17.1228L2.99942 19.1228ZM6.99942 15.1228V21.1228H8.99942V13.1228L6.99942 15.1228Z"
    fill="currentColor"
  />
</svg>